<svg width="64" height="64" viewBox="0 0 64 64" fill="none" xmlns="http://www.w3.org/2000/svg">
<g clip-path="url(#clip0_17_527)">
<path d="M8.75 43.25C8.06006 43.25 7.5 43.8101 7.5 44.5C7.5 45.1899 8.06006 45.75 8.75 45.75C9.43994 45.75 10 45.1899 10 44.5C10 43.8101 9.43994 43.25 8.75 43.25Z" fill="#FB7185"/>
<path d="M60.25 10H56.1895C56.1685 5.23145 54.1533 0 49.5 0C47.4624 0 46.3398 0.808594 45.1885 1.68311C45.1787 1.68994 45.1685 1.69727 45.1587 1.70508L38.6118 6.77148C37.2744 5.62158 35.4165 5 33.25 5C31.2109 5 29.4277 5.56104 28.1064 6.59717C25.5737 4.6377 22.2163 2.03955 21.2646 1.30371C20.1626 0.450684 18.8408 0 17.4424 0C12.7671 0 10.7749 5.26904 10.7534 10H3.75C1.68213 10 0 11.6821 0 13.75V23.75C0 24.4404 0.55957 25 1.25 25H2.5V60.25C2.5 62.3179 4.18213 64 6.25 64H57C59.0811 64 61.5 62.3618 61.5 60.25V25H62.75C63.4404 25 64 24.4404 64 23.75V13.75C64 11.6821 62.3179 10 60.25 10ZM46.6851 3.68506C47.4424 3.11133 48.1113 2.5 49.5 2.5C52.8662 2.5 53.9033 7.76611 53.6509 11.1543C53.4038 14.4995 52.0986 17.0078 50.4038 17.3965C48.958 17.7271 48.0859 17.2827 46.9497 16.6011L40.4849 12.8027C40.5132 12.7021 40.5386 12.6016 40.561 12.5H44.5C45.1904 12.5 45.75 11.9404 45.75 11.25C45.75 10.5596 45.1904 10 44.5 10H40.5664C40.4722 9.56934 40.3286 9.15137 40.1372 8.75195L46.6851 3.68506ZM48.8667 29.1211L45.4487 28.2051C45.1284 28.1191 44.7871 28.1641 44.5 28.3301C44.2129 28.4956 44.0034 28.769 43.9175 29.0889L42.9351 32.7573L35.1401 17.3281C36.6636 17.04 37.9575 16.395 38.9219 15.4458L48.8667 29.1211ZM27.7148 15.5762C28.665 16.4521 29.9136 17.0488 31.3618 17.3247L23.5654 32.7573L22.5825 29.0889C22.4038 28.4224 21.7183 28.0264 21.0518 28.2051L17.6836 29.1074L27.7148 15.5762ZM33.25 19.1309L35.75 24.0796V61.5H30.75V24.0796L33.25 19.1309ZM38.2012 11.25C38.2012 13.1279 36.5986 14.9814 33.2979 15H33.2017C29.8208 14.9819 28.2959 13.0757 28.2988 11.2515C28.3008 9.36621 29.9092 7.5 33.25 7.5C36.6099 7.5 38.2036 9.37549 38.2012 11.25ZM17.4424 2.5C18.2817 2.5 19.0747 2.77002 19.7358 3.28174C21.3452 4.52686 24.791 7.19336 26.4917 8.50879C26.2393 8.97998 26.0537 9.48193 25.938 10H22C21.3096 10 20.75 10.5596 20.75 11.25C20.75 11.9404 21.3096 12.5 22 12.5H25.937C25.9766 12.6772 26.0234 12.8525 26.0791 13.0254C26.0044 13.0693 26.8711 12.5601 19.9722 16.6138C19.9658 16.6182 19.9595 16.6226 19.9526 16.627L19.9521 16.6255C18.8716 17.2695 18.0151 17.7339 16.5405 17.3965C14.8457 17.0083 13.54 14.499 13.292 11.1538C13.04 7.76855 14.0752 2.5 17.4424 2.5ZM2.5 13.75C2.5 13.0605 3.06055 12.5 3.75 12.5H10.9243C11.4907 16.4678 13.3726 19.2354 15.9824 19.8335C19.1841 20.5654 20.8799 18.8545 23.0049 17.7319L19.4702 22.5H2.5V13.75ZM5 60.25V25H17.6167L13.541 30.498C13.2241 30.9253 13.2124 31.5059 13.5117 31.9458C13.8105 32.3853 14.3555 32.5879 14.8687 32.4497L20.4912 30.9434L21.9976 36.5659C22.1318 37.0664 22.561 37.4326 23.0762 37.4858C23.5933 37.5386 24.0869 37.2686 24.3208 36.8062L28.25 29.0283V61.5H6.25C5.56055 61.5 5 60.9395 5 60.25ZM59 60.25C59 60.7324 57.9082 61.5 57 61.5H38.25V29.0283L42.1792 36.8062C42.3936 37.23 42.8271 37.4927 43.2949 37.4927C43.8604 37.4927 44.356 37.1133 44.5024 36.5659L46.0088 30.9434L51.6313 32.4502C52.1431 32.5874 52.6855 32.3872 52.9854 31.9502C53.2852 31.5137 53.2773 30.9355 52.9658 30.5073L48.9609 25H59V60.25ZM61.5 22.5H47.1431L43.4785 17.4609L45.6519 18.7378C47.2749 19.7666 48.8662 20.3125 50.9619 19.8335C53.5718 19.2354 55.4541 16.4673 56.0186 12.5H60.25C60.9395 12.5 61.5 13.0605 61.5 13.75V22.5Z" fill="#FB7185"/>
<path d="M8.75 48.25C8.05957 48.25 7.5 48.8096 7.5 49.5V57.75C7.5 58.4404 8.05957 59 8.75 59C9.44043 59 10 58.4404 10 57.75V49.5C10 48.8096 9.44043 48.25 8.75 48.25Z" fill="#FB7185"/>
</g>
<defs>
<clipPath id="clip0_17_527">
<rect width="64" height="64" fill="white"/>
</clipPath>
</defs>
</svg>
