<svg width="64" height="64" viewBox="0 0 64 64" fill="none" xmlns="http://www.w3.org/2000/svg">
<g clip-path="url(#clip0_17_521)">
<path d="M30.4381 48.3348C30.9641 47.5713 31.3881 46.7449 31.6979 45.8788C31.8724 45.3913 31.6186 44.8547 31.1311 44.6803C30.6435 44.5058 30.1071 44.7597 29.9326 45.2472C29.7061 45.9015 29.2128 46.8525 28.6965 47.5576C27.7229 48.9718 27.0212 50.5279 26.6059 52.1629L26.2211 51.6958C25.3009 50.5785 23.943 49.9378 22.4955 49.9378H21.6174C20.17 49.9378 18.812 50.5785 17.8918 51.6959L17.1556 52.59C16.3694 53.5445 16.3694 54.9299 17.1556 55.8844L17.8919 56.7784C18.8121 57.8957 20.1701 58.5365 21.6175 58.5365H22.4956C23.9132 58.5365 25.2438 57.9207 26.1625 56.8456V63.0624C26.1625 63.5801 26.5822 63.9998 27.1 63.9998C27.6177 63.9998 28.0374 63.5801 28.0374 63.0624V55.7052C28.0186 53.141 28.899 50.4539 30.4381 48.3348V48.3348ZM24.7738 55.5864C24.7738 55.5865 24.7738 55.5865 24.7738 55.5864C24.2111 56.2698 23.3807 56.6616 22.4955 56.6616H21.6174C20.7322 56.6616 19.9019 56.2698 19.3391 55.5864L18.6028 54.6923C18.3855 54.4286 18.3855 54.0456 18.6028 53.7817L19.3391 52.8876C19.9017 52.2044 20.7322 51.8124 21.6174 51.8124H22.4955C23.3807 51.8124 24.2111 52.2043 24.7738 52.8875L25.8851 54.237L24.7738 55.5864Z" fill="#FB7185"/>
<path d="M48.2886 15.1748C47.8615 14.553 46.8639 14.1942 46.0075 14.4459C46.3232 13.7189 46.4471 12.9042 46.3327 12.0806L45.629 7.00707C45.3592 5.06164 43.8115 3.51107 41.8649 3.23633L38.8903 2.81772C37.3565 2.60135 35.8105 2.75935 34.372 3.25958L31.7746 1.02766C30.4673 -0.0961707 28.6285 -0.318662 27.0897 0.461184L19.5914 4.26342C16.9484 5.60274 15.5065 8.56751 16.0847 11.4732C16.1568 11.8273 16.6148 12.3241 17.1872 12.2096C17.6949 12.1085 18.0246 11.615 17.9236 11.1072C17.5089 9.02299 18.5432 6.89645 20.4392 5.93561L27.9375 2.13337C28.7963 1.69814 29.8228 1.82213 30.5525 2.44949L32.5142 4.13505C32.5277 4.10442 28.2784 6.96619 28.2085 7.00944C25.3485 6.71433 22.5576 8.98899 22.5771 12.0323C22.5432 13.7289 22.7453 15.7607 23.1854 17.5136L18.047 14.8153C16.4736 14.0967 14.6396 16.0077 15.5912 17.638L18.2812 22.3494C19.0835 23.5915 19.7058 26.5196 20.1176 27.943C21.3175 32.3819 25.3669 35.4819 29.9649 35.4819H30.4422L30.4419 39.5354L29.3916 38.8406C28.9597 38.5549 28.3781 38.6735 28.0925 39.1054C27.8069 39.5372 27.9254 40.1188 28.3572 40.4045L30.8543 42.0561C31.364 42.444 32.3536 42.0715 32.3167 41.2697L32.3171 35.4819C32.5143 35.48 34.0182 35.4858 34.157 35.4794V42.2943C34.1768 44.8574 33.2941 47.5424 31.7564 49.6646C30.527 51.449 29.8772 53.5377 29.8772 55.705V63.0622C29.8772 63.58 30.2969 63.9997 30.8146 63.9997C31.3324 63.9997 31.7521 63.58 31.7521 63.0622V58.1468L33.6967 57.0515C34.1478 56.7973 34.3075 56.2257 34.0534 55.7746C33.7993 55.3235 33.2276 55.1638 32.7764 55.4179L31.752 55.9949C31.687 54.2382 32.2482 52.2364 33.3016 50.7264C34.4209 49.185 35.335 47.1593 35.725 45.2458C36.5677 46.4342 38.1409 47.3211 39.6978 47.3043H40.5759C42.0234 47.3043 43.3813 46.6635 44.3016 45.5461L45.038 44.652C45.8238 43.6976 45.8238 42.3123 45.038 41.3578L44.3015 40.4636C43.3814 39.3462 42.0234 38.7054 40.5759 38.7054H39.6978C38.2807 38.7054 36.9505 39.321 36.0318 40.3953V35.2836C39.7729 34.5365 42.8678 31.7251 43.8895 27.9385C44.332 26.438 44.8475 23.8352 45.6492 22.4206L48.4282 17.2886C48.7961 16.6095 48.7425 15.7996 48.2886 15.1748V15.1748ZM37.4196 41.6557C37.9825 40.9723 38.8128 40.5804 39.6979 40.5804H40.576C41.4611 40.5804 42.2916 40.9723 42.8543 41.6557L43.5907 42.5497C43.8079 42.8135 43.8079 43.1965 43.5907 43.4603L42.8544 44.3544C42.2916 45.0378 41.4612 45.4296 40.576 45.4296H39.6979C38.2515 45.5485 37.0858 44.0134 36.3084 43.0051L37.4196 41.6557ZM33.2078 5.91598C34.8026 4.84702 36.7276 4.40604 38.6287 4.67428L41.6032 5.09289C42.7247 5.25126 43.6164 6.14422 43.7719 7.26456L44.4756 12.3384C44.6334 13.4737 44.0075 14.5809 42.9536 15.0309C42.9532 15.031 42.9528 15.0313 42.9524 15.0315C42.9514 15.0319 42.9503 15.0323 42.9493 15.0326L35.627 18.2066C36.1833 16.0956 36.6746 13.263 36.2359 10.7774C37.5538 11.0084 38.8726 11.9518 39.4718 13.2627C39.6412 13.5769 39.9641 13.7554 40.2978 13.7554C40.4479 13.7554 40.6003 13.7192 40.7418 13.6431C41.1975 13.3973 41.3679 12.8287 41.1221 12.373C39.8293 9.61034 37.2308 9.03499 34.9459 8.50764C34.0904 7.67604 32.9667 7.07706 31.5687 7.01482L33.2078 5.91598ZM30.7178 15.7169C28.2785 15.487 26.1402 13.7108 24.4524 12.1068C24.4268 10.2407 26.0168 8.728 27.9636 8.88462C28.5991 9.86046 29.1963 11.1754 29.4503 12.4451C29.5539 12.9523 30.0497 13.2797 30.5565 13.176C31.0638 13.0723 31.391 12.5771 31.2874 12.0698C31.0594 10.9535 30.6724 9.88458 30.1352 8.88462C32.5333 8.63526 34.312 9.67172 34.5153 11.8708C34.5286 13.1228 34.5198 14.1743 34.2463 15.8042C33.2148 15.7837 31.8105 15.8679 30.7178 15.7169V15.7169ZM25.1145 17.5109C24.9074 16.7073 24.7001 15.7209 24.5813 14.722C27.029 17.1462 30.4664 17.8949 33.8285 17.6792C33.6509 18.2989 33.3409 18.8759 32.9216 19.3661C30.6333 20.2488 27.87 20.0521 25.6617 18.8141C25.412 18.4119 25.2279 17.9743 25.1145 17.5109V17.5109ZM46.7797 16.396L44.0008 21.528C43.1794 22.8806 42.5157 25.9182 42.0795 27.4503C41.1014 31.0754 37.7958 33.6072 34.041 33.6072H29.9649C26.2119 33.6072 22.9068 31.0769 21.9275 27.4539C21.4189 25.6792 20.8994 23.0588 19.9093 21.4199L17.2193 16.7086C17.2285 16.7156 17.169 16.5995 17.2968 16.5393C20.5155 18.0095 26.1134 21.9594 29.7666 21.7969C28.346 23.262 26.8845 25.4308 26.1856 28.5103C26.071 29.0153 26.3874 29.5174 26.8923 29.632C27.2835 29.7217 27.83 29.5095 28.014 28.9253C29.353 23.026 33.8645 21.0138 34.0618 20.9284C34.0621 20.9283 34.0625 20.928 34.0629 20.9279C34.064 20.9274 34.0653 20.9269 34.0664 20.9264L43.5967 16.7955L46.6608 16.2323C46.6487 16.2422 46.8328 16.2272 46.7797 16.396V16.396Z" fill="#FB7185"/>
</g>
<defs>
<clipPath id="clip0_17_521">
<rect width="64" height="64" fill="white"/>
</clipPath>
</defs>
</svg>
