<svg width="64" height="64" viewBox="0 0 64 64" fill="none" xmlns="http://www.w3.org/2000/svg">
<g clip-path="url(#clip0_17_511)">
<path d="M8.84473 8.96899C8.84473 10.5197 10.1064 11.7815 11.6572 11.7815C13.2081 11.7815 14.4697 10.5197 14.4697 8.96899C14.4697 7.41824 13.2081 6.15649 11.6572 6.15649C10.1064 6.15649 8.84473 7.41824 8.84473 8.96899ZM12.5947 8.96899C12.5947 9.48599 12.1742 9.90649 11.6572 9.90649C11.1402 9.90649 10.7197 9.48599 10.7197 8.96899C10.7197 8.45199 11.1402 8.03149 11.6572 8.03149C12.1742 8.03149 12.5947 8.45212 12.5947 8.96899Z" fill="#FB7185"/>
<path d="M16.251 9.00024C16.251 10.551 17.5126 11.8127 19.0635 11.8127C20.6143 11.8127 21.876 10.551 21.876 9.00024C21.876 7.44949 20.6143 6.18774 19.0635 6.18774C17.5126 6.18774 16.251 7.44949 16.251 9.00024ZM20.001 9.00024C20.001 9.51724 19.5805 9.93774 19.0635 9.93774C18.5465 9.93774 18.126 9.51724 18.126 9.00024C18.126 8.48324 18.5465 8.06274 19.0635 8.06274C19.5805 8.06274 20.001 8.48337 20.001 9.00024Z" fill="#FB7185"/>
<path d="M23.6255 9.00024C23.6255 10.551 24.8871 11.8127 26.438 11.8127C27.9889 11.8127 29.2505 10.551 29.2505 9.00024C29.2505 7.44949 27.9889 6.18774 26.438 6.18774C24.8871 6.18774 23.6255 7.44949 23.6255 9.00024ZM27.3755 9.00024C27.3755 9.51724 26.955 9.93774 26.438 9.93774C25.921 9.93774 25.5005 9.51724 25.5005 9.00024C25.5005 8.48324 25.921 8.06274 26.438 8.06274C26.955 8.06274 27.3755 8.48337 27.3755 9.00024Z" fill="#FB7185"/>
<path d="M33.0005 9.00021C33.0005 10.5509 34.2621 11.8127 35.813 11.8127H52.4377C53.9886 11.8127 55.2502 10.5509 55.2502 9.00021C55.2502 7.44948 53.9886 6.18774 52.4377 6.18774H35.813C34.2621 6.18774 33.0005 7.44948 33.0005 9.00021ZM53.3752 9.00021C53.3752 9.5172 52.9547 9.93769 52.4377 9.93769H35.813C35.296 9.93769 34.8755 9.5172 34.8755 9.00021C34.8755 8.48321 35.296 8.06272 35.813 8.06272H52.4377C52.9546 8.06272 53.3752 8.48334 53.3752 9.00021Z" fill="#FB7185"/>
<path d="M64.0001 24.9999C64.0001 24.2086 63.822 23.412 63.4851 22.696C63.4777 22.6803 63.47 22.6648 63.4617 22.6497L59.0001 14.3881V8.37516C59.0001 5.10133 56.3366 2.43774 53.0627 2.43774H46.6253C46.1076 2.43774 45.6878 2.85736 45.6878 3.37523C45.6878 3.8931 46.1076 4.31272 46.6253 4.31272H53.0627C55.3027 4.31272 57.1252 6.13507 57.1252 8.37516V13.6876H6.87587V8.37516C6.87587 6.13507 8.69835 4.31272 10.9383 4.31272H42.2504C42.7681 4.31272 43.1879 3.8931 43.1879 3.37523C43.1879 2.85736 42.7681 2.43774 42.2504 2.43774H10.9383C7.66449 2.43774 5.0009 5.10133 5.0009 8.37516V14.3882L3.01742 18.0612C2.77143 18.5168 2.9413 19.0854 3.39679 19.3315C3.53842 19.4079 3.69104 19.4441 3.84141 19.4441C4.17478 19.4441 4.49765 19.2659 4.66715 18.9519L6.4975 15.5626H14.0766L13.0113 22.8726C13.0104 22.8783 13.0097 22.8842 13.0089 22.89C12.9204 23.5871 12.8757 24.297 12.8757 24.9999C12.8757 27.7914 10.6047 30.0624 7.81323 30.0624C4.74178 30.4107 1.85194 28.1821 1.87582 24.9999C1.84657 24.2353 2.19631 23.4553 2.58243 22.812C2.82843 22.3564 2.65856 21.7877 2.20306 21.5416C1.74757 21.296 1.17883 21.4656 0.932704 21.9211C0.376337 22.8396 -0.0207826 23.9156 0.000842075 24.9999C0.000842075 28.1528 2.11569 30.8192 5.00077 31.66V55.6245C5.00077 58.8984 7.66436 61.562 10.9382 61.562H53.0626C56.3364 61.562 59 58.8984 59 55.6245V51.6871C59 51.1692 58.5803 50.7496 58.0625 50.7496C57.5448 50.7496 57.125 51.1692 57.125 51.6871V55.6245C57.125 57.8646 55.3026 59.687 53.0626 59.687H10.9382C8.69822 59.687 6.87575 57.8646 6.87575 55.6245V31.9358C6.89662 31.936 7.81323 31.9375 7.81323 31.9375C10.3732 31.9375 12.612 30.5426 13.8143 28.474C14.6123 29.8501 15.8744 30.9475 17.4281 31.5164C17.9016 31.6935 18.4533 31.4494 18.6308 30.9582C18.8088 30.472 18.559 29.9336 18.0728 29.7556C16.0857 29.0281 14.7506 27.117 14.7506 24.9999C14.7504 24.3757 14.7931 23.7508 14.8684 23.1312L15.9714 15.5626H25.1255V24.9999C25.1255 27.117 23.7904 29.0281 21.8033 29.7556C21.317 29.9336 21.0673 30.472 21.2453 30.9582C21.4227 31.4492 21.9745 31.6935 22.448 31.5164C24.0019 30.9475 25.2639 29.85 26.0619 28.474C27.264 30.5426 29.5029 31.9375 32.0629 31.9375H32.1879C34.7471 31.9375 36.9853 30.5435 38.1878 28.476C39.3903 30.5435 41.6285 31.9375 44.1877 31.9375C46.7469 31.9375 48.9852 30.5435 50.1876 28.476C51.3901 30.5435 53.6283 31.9375 56.1876 31.9375C56.1876 31.9375 57.1042 31.9361 57.125 31.9358V47.3123C57.125 47.8301 57.5448 48.2498 58.0625 48.2498C58.5803 48.2498 59 47.8301 59 47.3123V31.6601C61.8852 30.8194 64.0001 28.1528 64.0001 24.9999V24.9999ZM32.188 30.0624H32.063C29.2716 30.0624 27.0006 27.7914 27.0006 24.9999V15.5626H37.2504V24.9999C37.2504 27.7914 34.9794 30.0624 32.188 30.0624ZM44.1878 30.0624C41.3964 30.0624 39.1254 27.7914 39.1254 24.9999V15.5626H48.1437L49.1428 23.1193C49.2117 23.7435 49.2505 24.3721 49.2504 24.9999C49.2503 27.7914 46.9792 30.0624 44.1878 30.0624V30.0624ZM58.0732 29.9609C57.516 30.0679 56.7639 30.0746 56.1877 30.0624C53.3962 30.0624 51.1253 27.7914 51.1253 24.9999C51.1253 24.3005 51.0848 23.5938 51.0048 22.8993C51.0041 22.8941 51.0035 22.8888 51.0028 22.8836L50.0348 15.5626H57.5034L61.7987 23.5165C62.0122 23.9786 62.125 24.4909 62.125 24.9999C62.1251 27.4455 60.3821 29.4914 58.0732 29.9609V29.9609Z" fill="#FB7185"/>
<path d="M29.4372 49.1872C29.4378 49.1872 29.4384 49.1871 29.4392 49.1871H35.4375C35.4381 49.1871 35.4387 49.1872 35.4395 49.1872C35.4403 49.1872 35.4412 49.1871 35.4421 49.1871H41.2958C41.742 49.1871 42.1265 48.8724 42.2147 48.4349L44.2322 38.4351C44.3597 37.8745 43.8878 37.2981 43.3132 37.3122H22.1819C21.9034 35.669 20.4574 34.4334 18.7873 34.4373H17.1885C16.6707 34.4373 16.251 34.8569 16.251 35.3748C16.251 35.8926 16.6707 36.3122 17.1885 36.3122H18.7873C19.5211 36.3122 20.1639 36.8332 20.3159 37.5511L23.1016 50.7113C23.3648 51.9544 24.2982 52.9265 25.4705 53.2853C25.3291 53.6204 25.2509 53.9885 25.2509 54.3745C25.2509 55.9252 26.5125 57.187 28.0633 57.187C29.6142 57.187 30.8758 55.9252 30.8758 54.3745C30.8758 54.0459 30.8185 53.7304 30.7145 53.437H34.912C34.8078 53.7304 34.7507 54.0459 34.7507 54.3745C34.7507 55.9252 36.0123 57.187 37.5632 57.187C39.114 57.187 40.3756 55.9252 40.3756 54.3745C40.3756 54.0459 40.3184 53.7304 40.2144 53.437H40.4381C40.9559 53.437 41.3756 53.0174 41.3756 52.4995C41.3756 51.9816 40.9559 51.562 40.4381 51.562H26.4646C25.7308 51.562 25.088 51.041 24.936 50.3232L24.6955 49.1871H29.4345C29.4354 49.1871 29.4363 49.1872 29.4372 49.1872V49.1872ZM29.0009 54.3745C29.0009 54.8915 28.5804 55.312 28.0634 55.312C27.5464 55.312 27.126 54.8915 27.126 54.3745C27.126 53.8575 27.5464 53.437 28.0634 53.437C28.5804 53.437 29.0009 53.8576 29.0009 54.3745ZM38.5008 54.3745C38.5008 54.8915 38.0803 55.312 37.5633 55.312C37.0463 55.312 36.6258 54.8915 36.6258 54.3745C36.6258 53.8575 37.0463 53.437 37.5633 53.437C38.0803 53.437 38.5008 53.8576 38.5008 54.3745ZM35.0013 44.1871L34.6107 47.3121H30.2659L29.8753 44.1871H35.0013ZM29.6409 42.3122L29.2503 39.1872H35.6263L35.2357 42.3122H29.6409ZM36.5002 47.3121L36.8908 44.1871H41.1589L40.5284 47.3121H36.5002ZM41.5373 42.3122H37.1253L37.5159 39.1872H42.1677L41.5373 42.3122ZM27.3608 39.1872L27.7514 42.3122H23.2403L22.5788 39.1872H27.3608ZM23.6371 44.1871H27.9858L28.3764 47.3121H24.2986L23.6371 44.1871Z" fill="#FB7185"/>
</g>
<defs>
<clipPath id="clip0_17_511">
<rect width="64" height="64" fill="white"/>
</clipPath>
</defs>
</svg>
