<svg width="162" height="48" viewBox="0 0 162 48" fill="none" xmlns="http://www.w3.org/2000/svg">
<g id="Logo">
<g id="Logo_2">
<mask id="mask0_28_12" style="mask-type:alpha" maskUnits="userSpaceOnUse" x="6" y="9" width="147" height="31">
<path id="Florist Rose" d="M19.64 22.656C20.3227 22.656 20.856 22.848 21.24 23.232C21.6453 23.616 21.848 24.1493 21.848 24.832C21.848 25.0027 21.8373 25.184 21.816 25.376C21.7947 25.5467 21.752 25.696 21.688 25.824C21.4107 25.7813 21.1013 25.7493 20.76 25.728C20.4187 25.6853 20.0133 25.664 19.544 25.664C18.584 25.664 17.624 25.7493 16.664 25.92C15.704 26.0907 14.7867 26.2293 13.912 26.336C12.952 28.5973 12.1627 30.72 11.544 32.704C10.9253 34.688 10.4453 36.6507 10.104 38.592C9.37867 38.4213 8.73867 38.112 8.184 37.664C7.62933 37.216 7.10667 36.5867 6.616 35.776C6.76533 35.4347 6.94667 35.0293 7.16 34.56C7.37333 34.0693 7.62933 33.4613 7.928 32.736C8.22667 31.9893 8.57867 31.0933 8.984 30.048C9.41067 28.9813 9.912 27.712 10.488 26.24C9.592 25.9413 9.00533 25.4187 8.728 24.672C8.83467 24.5653 9.13333 24.448 9.624 24.32C10.1147 24.1707 10.712 24.0107 11.416 23.84C11.736 23.008 12.0133 22.272 12.248 21.632C12.4827 20.9707 12.696 20.352 12.888 19.776C13.08 19.1787 13.2507 18.6027 13.4 18.048C13.5707 17.472 13.72 16.864 13.848 16.224H13.688C12.8773 16.224 12.216 16.032 11.704 15.648C11.2133 15.264 10.968 14.7627 10.968 14.144C10.968 13.9733 10.9893 13.7707 11.032 13.536C11.096 13.3013 11.1707 13.0987 11.256 12.928C11.6613 12.992 12.056 13.0347 12.44 13.056C12.8453 13.0773 13.368 13.088 14.008 13.088C15.352 13.088 16.6107 13.056 17.784 12.992C18.9573 12.9067 20.0133 12.8213 20.952 12.736C21.912 12.6507 22.7333 12.576 23.416 12.512C24.0987 12.4267 24.6213 12.384 24.984 12.384C25.4747 12.384 25.912 12.64 26.296 13.152C26.68 13.664 26.9787 14.3893 27.192 15.328C26.5093 15.264 25.9547 15.2213 25.528 15.2C25.1227 15.1787 24.76 15.168 24.44 15.168C23.352 15.168 22.3493 15.2213 21.432 15.328C20.536 15.4133 19.6827 15.52 18.872 15.648C18.744 15.84 18.5947 16.0853 18.424 16.384C18.2747 16.6827 18.072 17.1093 17.816 17.664C17.56 18.1973 17.2293 18.9013 16.824 19.776C16.44 20.6507 15.9493 21.76 15.352 23.104C16.184 22.976 16.9733 22.8693 17.72 22.784C18.488 22.6987 19.128 22.656 19.64 22.656ZM23.5408 33.952C23.5408 33.0133 23.7648 31.7013 24.2128 30.016C24.6608 28.3093 25.2901 26.3253 26.1008 24.064C27.4234 20.4587 28.6608 17.4613 29.8128 15.072C30.9861 12.6613 32.1274 10.784 33.2368 9.44C33.4928 9.48266 33.8021 9.58933 34.1648 9.76C34.5488 9.93067 34.9221 10.1227 35.2848 10.336C35.6474 10.528 35.9674 10.7307 36.2448 10.944C36.5434 11.1573 36.7354 11.328 36.8208 11.456C35.1568 13.4187 33.6954 15.5307 32.4368 17.792C31.1781 20.0533 30.0261 22.6453 28.9808 25.568C28.0848 28.0853 27.4021 30.3573 26.9328 32.384C26.4634 34.3893 26.2288 36.064 26.2288 37.408C26.2288 37.7707 26.2288 37.9947 26.2288 38.08C26.2288 38.1653 26.2394 38.2507 26.2608 38.336C25.9621 38.2933 25.7061 38.2187 25.4928 38.112C25.2794 38.0053 25.1408 37.8773 25.0768 37.728C25.0341 37.6213 24.9168 37.4613 24.7248 37.248C24.5328 37.056 24.3621 36.9067 24.2128 36.8C24.0208 36.672 23.8608 36.3413 23.7328 35.808C23.6048 35.2533 23.5408 34.6347 23.5408 33.952ZM34.7863 37.12C33.5703 36.992 32.5996 36.4587 31.8743 35.52C31.1489 34.5813 30.7863 33.3867 30.7863 31.936C30.7863 31.0827 30.9143 30.1973 31.1703 29.28C31.4263 28.3627 31.7889 27.4773 32.2583 26.624C32.7276 25.7493 33.2823 24.928 33.9223 24.16C34.5623 23.392 35.2556 22.7307 36.0023 22.176C37.1756 21.3013 38.2743 20.864 39.2983 20.864C39.9809 21.2267 40.6529 21.984 41.3143 23.136C41.4209 23.136 41.5169 23.136 41.6023 23.136C41.6876 23.1147 41.7836 23.104 41.8903 23.104C43.0209 23.104 43.5863 24.1067 43.5863 26.112C43.5863 27.456 43.3623 28.736 42.9143 29.952C42.4876 31.1467 41.8796 32.2347 41.0903 33.216C40.3223 34.1973 39.3943 35.0293 38.3063 35.712C37.2396 36.3733 36.0663 36.8427 34.7863 37.12ZM36.4183 27.04C36.0556 27.5307 35.7143 28.064 35.3943 28.64C35.0743 29.216 34.7969 29.8027 34.5623 30.4C34.3276 30.976 34.1463 31.5413 34.0183 32.096C33.8903 32.6293 33.8263 33.1093 33.8263 33.536C33.8263 34.048 33.9116 34.5387 34.0823 35.008C34.2529 35.4773 34.4449 35.744 34.6583 35.808C35.6183 35.5947 36.4929 35.2 37.2823 34.624C38.0929 34.0267 38.7863 33.2907 39.3623 32.416C39.9596 31.5413 40.4183 30.5493 40.7383 29.44C41.0796 28.3307 41.2503 27.1467 41.2503 25.888C41.2503 25.3333 41.2183 24.896 41.1543 24.576C41.0903 24.256 40.9836 23.9787 40.8343 23.744C39.8956 24.0213 39.0529 24.4693 38.3063 25.088C37.5809 25.7067 36.9516 26.3573 36.4183 27.04ZM44.3673 35.36C44.4739 34.7413 44.6553 33.9307 44.9113 32.928C45.1886 31.904 45.5086 30.8267 45.8713 29.696C46.2339 28.544 46.6179 27.392 47.0233 26.24C47.4286 25.088 47.8233 24.0533 48.2073 23.136C48.4846 22.4747 48.7299 21.9627 48.9433 21.6C49.1566 21.216 49.3913 20.896 49.6473 20.64C49.9459 20.6827 50.2553 20.7573 50.5753 20.864C50.8953 20.9707 51.2046 21.0987 51.5033 21.248C51.8019 21.3973 52.0686 21.5573 52.3033 21.728C52.5379 21.8773 52.7193 22.0267 52.8473 22.176C52.2713 22.8587 51.7593 23.6373 51.3113 24.512C50.8846 25.3867 50.4473 26.5067 49.9993 27.872C51.1513 26.848 52.1646 25.8667 53.0393 24.928C53.9353 23.9893 54.7673 22.944 55.5353 21.792C55.6633 21.6853 55.8873 21.632 56.2073 21.632C56.5059 21.632 56.7939 21.6853 57.0713 21.792C57.3486 21.8773 57.5406 22.0053 57.6473 22.176C57.2633 23.2 57.0713 24.2133 57.0713 25.216C57.0713 26.1547 57.2099 26.8587 57.4873 27.328C57.4659 27.456 57.3166 27.7013 57.0393 28.064C56.7833 28.4267 56.4953 28.768 56.1753 29.088C55.5993 28.7893 55.0873 28.384 54.6393 27.872C54.1913 27.3387 53.8606 26.7627 53.6473 26.144C52.6446 26.848 51.7913 27.5413 51.0873 28.224C50.3833 28.8853 49.7753 29.632 49.2633 30.464C48.7726 31.2747 48.3459 32.2133 47.9833 33.28C47.6419 34.3467 47.3113 35.616 46.9913 37.088C46.7993 37.0667 46.5646 36.992 46.2873 36.864C46.0313 36.7573 45.7646 36.6187 45.4873 36.448C45.2313 36.2773 44.9966 36.096 44.7833 35.904C44.5699 35.712 44.4313 35.5307 44.3673 35.36ZM58.0735 33.856C58.0735 33.664 58.0842 33.4293 58.1055 33.152C58.1482 32.8533 58.2122 32.4693 58.2975 32C58.3828 31.5093 58.4895 30.9227 58.6175 30.24C58.7668 29.5573 58.9482 28.736 59.1615 27.776C59.2042 27.5627 59.3002 27.2213 59.4495 26.752C59.5988 26.2827 59.7908 25.792 60.0255 25.28C60.2815 24.7467 60.5802 24.2347 60.9215 23.744C61.2842 23.2533 61.7108 22.8907 62.2015 22.656C62.5642 22.7413 63.0442 22.9653 63.6415 23.328C64.2388 23.6693 64.7508 24.1493 65.1775 24.768C64.6868 25.3227 64.2708 25.8773 63.9295 26.432C63.6095 26.9867 63.3108 27.5627 63.0335 28.16C62.7775 28.7573 62.5322 29.376 62.2975 30.016C62.0842 30.656 61.8388 31.328 61.5615 32.032C61.3268 32.6293 61.1135 33.248 60.9215 33.888C60.7295 34.5067 60.6228 35.0507 60.6015 35.52C60.6015 35.904 60.5908 36.1707 60.5695 36.32C60.5695 36.4907 60.5162 36.576 60.4095 36.576C60.3242 36.576 60.1535 36.5227 59.8975 36.416C59.6415 36.3093 59.3748 36.1493 59.0975 35.936C58.8415 35.7013 58.6068 35.4133 58.3935 35.072C58.1802 34.7307 58.0735 34.3253 58.0735 33.856ZM64.1855 19.968C64.1855 19.84 64.2175 19.648 64.2815 19.392C64.1748 19.2853 64.0788 19.1253 63.9935 18.912C63.9295 18.6987 63.8975 18.5067 63.8975 18.336C63.8975 18.144 63.9188 17.888 63.9615 17.568C64.0255 17.2267 64.1002 16.864 64.1855 16.48C64.2708 16.096 64.3775 15.7013 64.5055 15.296C64.6335 14.8693 64.7615 14.4853 64.8895 14.144C65.1455 14.144 65.4548 14.2187 65.8175 14.368C66.2015 14.496 66.5855 14.6773 66.9695 14.912C67.3535 15.1253 67.7055 15.3707 68.0255 15.648C68.3455 15.904 68.5908 16.1493 68.7615 16.384C68.5268 16.6187 68.2175 16.9493 67.8335 17.376C67.4495 17.7813 67.0762 18.2187 66.7135 18.688C66.3508 19.136 66.0202 19.5627 65.7215 19.968C65.4228 20.3733 65.2308 20.6613 65.1455 20.832C64.8895 20.7893 64.6655 20.6827 64.4735 20.512C64.2815 20.32 64.1855 20.1387 64.1855 19.968ZM76.644 23.264C76.6227 23.6693 76.548 24.096 76.42 24.544C76.3133 24.9707 76.1747 25.3653 76.004 25.728C75.8333 26.0693 75.652 26.3573 75.46 26.592C75.268 26.8267 75.0867 26.944 74.916 26.944C74.6813 26.9227 74.5427 26.7627 74.5 26.464C74.5 26.4 74.5213 26.304 74.564 26.176C74.628 26.0267 74.692 25.8667 74.756 25.696C74.82 25.5253 74.8733 25.3547 74.916 25.184C74.98 25.0133 75.012 24.864 75.012 24.736C75.012 24.4373 74.9373 24.192 74.788 24C74.66 23.7867 74.4787 23.68 74.244 23.68C73.3907 23.68 72.74 24.2133 72.292 25.28C71.844 26.3467 71.62 27.9147 71.62 29.984C71.62 30.1973 71.6307 30.3253 71.652 30.368C72.1 30.3467 72.4947 30.336 72.836 30.336C73.1987 30.3147 73.5507 30.304 73.892 30.304C73.9133 30.3467 73.924 30.432 73.924 30.56C73.924 30.752 73.8813 30.8907 73.796 30.976C73.3053 31.0827 72.9107 31.1787 72.612 31.264C72.3347 31.328 72.1213 31.392 71.972 31.456C71.8227 31.52 71.7267 31.5947 71.684 31.68C71.6627 31.744 71.652 31.84 71.652 31.968C71.652 32.1387 71.652 32.3093 71.652 32.48C71.6733 32.6507 71.684 32.864 71.684 33.12C71.684 34.912 71.1933 36.352 70.212 37.44C69.252 38.528 67.908 39.1573 66.18 39.328C65.8813 39.3067 65.572 39.2213 65.252 39.072C64.932 38.9227 64.6227 38.7307 64.324 38.496C64.0467 38.2613 63.8013 37.9947 63.588 37.696C63.3747 37.4187 63.2253 37.1307 63.14 36.832C63.14 36.0213 63.3107 35.2533 63.652 34.528C63.9933 33.7813 64.452 33.1307 65.028 32.576C65.6253 32 66.3187 31.5413 67.108 31.2C67.9187 30.8373 68.7933 30.624 69.732 30.56C69.732 30.0267 69.6787 29.504 69.572 28.992C69.4653 28.48 69.348 27.9893 69.22 27.52C69.1133 27.0293 69.0067 26.56 68.9 26.112C68.7933 25.6427 68.74 25.184 68.74 24.736C68.74 24.16 68.8573 23.5947 69.092 23.04C69.3267 22.464 69.636 21.9413 70.02 21.472C70.404 20.9813 70.852 20.5653 71.364 20.224C71.876 19.8827 72.4093 19.648 72.964 19.52C73.1987 19.584 73.508 19.776 73.892 20.096C74.2973 20.3947 74.692 20.736 75.076 21.12C75.46 21.504 75.8013 21.8987 76.1 22.304C76.3987 22.688 76.58 23.008 76.644 23.264ZM66.084 37.856C66.596 37.6427 67.076 37.3333 67.524 36.928C67.9933 36.5227 68.3987 36.064 68.74 35.552C69.0813 35.04 69.348 34.496 69.54 33.92C69.7533 33.344 69.86 32.7787 69.86 32.224C69.4333 32.288 68.964 32.4907 68.452 32.832C67.94 33.152 67.46 33.5467 67.012 34.016C66.564 34.464 66.1907 34.9333 65.892 35.424C65.5933 35.9147 65.444 36.3413 65.444 36.704C65.444 37.1733 65.6573 37.5573 66.084 37.856ZM78.5545 23.744C78.4478 23.616 78.3518 23.3493 78.2665 22.944C78.1812 22.5173 78.1385 22.1547 78.1385 21.856C78.6932 21.8987 79.2265 21.9413 79.7385 21.984C80.2505 22.0053 80.7198 22.0267 81.1465 22.048C81.4665 21.408 81.8078 20.7787 82.1705 20.16C82.5545 19.52 82.9172 18.944 83.2585 18.432C83.6212 17.8987 83.9518 17.4507 84.2505 17.088C84.5705 16.7253 84.8158 16.4907 84.9865 16.384C85.1998 16.384 85.4665 16.4267 85.7865 16.512C86.1278 16.576 86.4692 16.672 86.8105 16.8C87.1518 16.9067 87.4612 17.024 87.7385 17.152C88.0158 17.28 88.2078 17.408 88.3145 17.536C87.6745 18.3467 87.1198 19.104 86.6505 19.808C86.2025 20.4907 85.7118 21.28 85.1785 22.176C85.6052 22.176 86.0318 22.1653 86.4585 22.144C86.9065 22.1227 87.3545 22.0907 87.8025 22.048C87.9092 22.1547 87.9945 22.2933 88.0585 22.464C88.1225 22.6133 88.1545 22.7733 88.1545 22.944C87.1092 23.328 85.8398 23.5413 84.3465 23.584C83.8132 24.608 83.3332 25.632 82.9065 26.656C82.5012 27.6587 82.1492 28.6293 81.8505 29.568C81.5732 30.5067 81.3492 31.392 81.1785 32.224C81.0292 33.056 80.9545 33.8027 80.9545 34.464C80.9545 35.4027 81.3065 35.9253 82.0105 36.032C82.6505 35.9467 83.2585 35.7867 83.8345 35.552C84.4105 35.3173 84.9225 35.0187 85.3705 34.656C85.4985 34.848 85.5732 35.008 85.5945 35.136C85.4665 35.328 85.2425 35.552 84.9225 35.808C84.6238 36.064 84.2932 36.3093 83.9305 36.544C83.5678 36.8 83.2158 37.0133 82.8745 37.184C82.5332 37.3547 82.2772 37.4507 82.1065 37.472C81.5732 37.4507 81.0398 37.3333 80.5065 37.12C79.9732 36.9067 79.4825 36.64 79.0345 36.32C78.6078 36 78.2558 35.648 77.9785 35.264C77.7012 34.8587 77.5625 34.464 77.5625 34.08C77.5625 33.568 77.6265 32.928 77.7545 32.16C77.9038 31.3707 78.1065 30.5173 78.3625 29.6C78.6185 28.6827 78.9172 27.7227 79.2585 26.72C79.5998 25.7173 79.9732 24.7253 80.3785 23.744H78.5545ZM117.43 18.368C117.43 19.392 117.195 20.3627 116.726 21.28C116.278 22.176 115.648 22.9867 114.838 23.712C114.027 24.416 113.078 25.0133 111.99 25.504C110.902 25.9947 109.718 26.3253 108.438 26.496C108.758 27.456 109.142 28.448 109.59 29.472C110.059 30.4747 110.56 31.4453 111.094 32.384C111.627 33.3227 112.182 34.1867 112.758 34.976C113.334 35.7653 113.899 36.416 114.454 36.928C114.347 37.1413 114.187 37.3547 113.974 37.568C113.782 37.7813 113.547 37.9733 113.27 38.144C113.014 38.336 112.736 38.4853 112.438 38.592C112.16 38.72 111.894 38.784 111.638 38.784C111.168 38.784 110.72 38.56 110.294 38.112C109.867 37.664 109.43 36.96 108.982 36C108.555 35.0187 108.096 33.76 107.606 32.224C107.136 30.6667 106.614 28.8 106.038 26.624C105.803 26.624 105.568 26.624 105.334 26.624C105.099 26.624 104.918 26.6027 104.79 26.56C104.64 26.4747 104.48 26.3253 104.31 26.112C103.734 27.3493 103.222 28.512 102.774 29.6C102.326 30.688 101.92 31.744 101.558 32.768C101.216 33.7707 100.907 34.752 100.63 35.712C100.374 36.6507 100.15 37.6107 99.9575 38.592C99.2322 38.4213 98.6028 38.112 98.0695 37.664C97.5362 37.216 97.0348 36.5867 96.5655 35.776C96.6508 35.584 96.7362 35.4027 96.8215 35.232C96.9282 35.04 97.0562 34.784 97.2055 34.464C97.3548 34.1227 97.5362 33.696 97.7495 33.184C97.9842 32.672 98.2828 31.9893 98.6455 31.136C99.0295 30.2827 99.4775 29.2373 99.9895 28C100.523 26.7627 101.163 25.2587 101.91 23.488C102.251 22.6987 102.539 22.0053 102.774 21.408C103.03 20.8107 103.254 20.2453 103.446 19.712C103.638 19.1573 103.808 18.6133 103.958 18.08C104.128 17.5253 104.299 16.896 104.47 16.192C103.488 16.5333 102.571 16.9173 101.718 17.344C100.886 17.7493 100.192 18.1867 99.6375 18.656C99.4455 18.528 99.2428 18.336 99.0295 18.08C98.8375 17.824 98.6562 17.5467 98.4855 17.248C98.3148 16.928 98.1655 16.608 98.0375 16.288C97.9095 15.968 97.8348 15.68 97.8135 15.424C98.4535 14.9973 99.2322 14.6027 100.15 14.24C101.088 13.8773 102.08 13.568 103.126 13.312C104.171 13.0347 105.238 12.8213 106.326 12.672C107.414 12.5227 108.427 12.448 109.366 12.448C111.926 12.448 113.91 12.9813 115.318 14.048C116.726 15.0933 117.43 16.5333 117.43 18.368ZM109.622 15.68C109.472 15.872 109.238 16.256 108.918 16.832C108.598 17.408 108.224 18.1013 107.798 18.912C107.392 19.7013 106.955 20.5653 106.486 21.504C106.038 22.4427 105.6 23.3707 105.174 24.288C106.774 24.288 108.246 24.1387 109.59 23.84C110.934 23.5413 112.096 23.1253 113.078 22.592C114.059 22.0373 114.816 21.3973 115.35 20.672C115.904 19.9253 116.182 19.104 116.182 18.208C116.182 17.1413 115.798 16.3307 115.03 15.776C114.262 15.2 113.078 14.912 111.478 14.912C111.115 14.912 110.752 14.9333 110.39 14.976C110.027 14.9973 109.643 15.0293 109.238 15.072L109.622 15.68ZM120.068 37.12C118.852 36.992 117.881 36.4587 117.156 35.52C116.43 34.5813 116.068 33.3867 116.068 31.936C116.068 31.0827 116.196 30.1973 116.452 29.28C116.708 28.3627 117.07 27.4773 117.54 26.624C118.009 25.7493 118.564 24.928 119.204 24.16C119.844 23.392 120.537 22.7307 121.284 22.176C122.457 21.3013 123.556 20.864 124.58 20.864C125.262 21.2267 125.934 21.984 126.596 23.136C126.702 23.136 126.798 23.136 126.884 23.136C126.969 23.1147 127.065 23.104 127.172 23.104C128.302 23.104 128.868 24.1067 128.868 26.112C128.868 27.456 128.644 28.736 128.196 29.952C127.769 31.1467 127.161 32.2347 126.372 33.216C125.604 34.1973 124.676 35.0293 123.588 35.712C122.521 36.3733 121.348 36.8427 120.068 37.12ZM121.7 27.04C121.337 27.5307 120.996 28.064 120.676 28.64C120.356 29.216 120.078 29.8027 119.844 30.4C119.609 30.976 119.428 31.5413 119.3 32.096C119.172 32.6293 119.108 33.1093 119.108 33.536C119.108 34.048 119.193 34.5387 119.364 35.008C119.534 35.4773 119.726 35.744 119.94 35.808C120.9 35.5947 121.774 35.2 122.564 34.624C123.374 34.0267 124.068 33.2907 124.644 32.416C125.241 31.5413 125.7 30.5493 126.02 29.44C126.361 28.3307 126.532 27.1467 126.532 25.888C126.532 25.3333 126.5 24.896 126.436 24.576C126.372 24.256 126.265 23.9787 126.116 23.744C125.177 24.0213 124.334 24.4693 123.588 25.088C122.862 25.7067 122.233 26.3573 121.7 27.04ZM141.457 23.264C141.435 23.6693 141.361 24.096 141.233 24.544C141.126 24.9707 140.987 25.3653 140.817 25.728C140.646 26.0693 140.465 26.3573 140.273 26.592C140.081 26.8267 139.899 26.944 139.729 26.944C139.494 26.9227 139.355 26.7627 139.313 26.464C139.313 26.4 139.334 26.304 139.377 26.176C139.441 26.0267 139.505 25.8667 139.569 25.696C139.633 25.5253 139.686 25.3547 139.729 25.184C139.793 25.0133 139.825 24.864 139.825 24.736C139.825 24.4373 139.75 24.192 139.601 24C139.473 23.7867 139.291 23.68 139.057 23.68C138.203 23.68 137.553 24.2133 137.105 25.28C136.657 26.3467 136.433 27.9147 136.433 29.984C136.433 30.1973 136.443 30.3253 136.465 30.368C136.913 30.3467 137.307 30.336 137.649 30.336C138.011 30.3147 138.363 30.304 138.705 30.304C138.726 30.3467 138.737 30.432 138.737 30.56C138.737 30.752 138.694 30.8907 138.609 30.976C138.118 31.0827 137.723 31.1787 137.425 31.264C137.147 31.328 136.934 31.392 136.785 31.456C136.635 31.52 136.539 31.5947 136.497 31.68C136.475 31.744 136.465 31.84 136.465 31.968C136.465 32.1387 136.465 32.3093 136.465 32.48C136.486 32.6507 136.497 32.864 136.497 33.12C136.497 34.912 136.006 36.352 135.025 37.44C134.065 38.528 132.721 39.1573 130.993 39.328C130.694 39.3067 130.385 39.2213 130.065 39.072C129.745 38.9227 129.435 38.7307 129.137 38.496C128.859 38.2613 128.614 37.9947 128.401 37.696C128.187 37.4187 128.038 37.1307 127.953 36.832C127.953 36.0213 128.123 35.2533 128.465 34.528C128.806 33.7813 129.265 33.1307 129.841 32.576C130.438 32 131.131 31.5413 131.921 31.2C132.731 30.8373 133.606 30.624 134.545 30.56C134.545 30.0267 134.491 29.504 134.385 28.992C134.278 28.48 134.161 27.9893 134.033 27.52C133.926 27.0293 133.819 26.56 133.713 26.112C133.606 25.6427 133.553 25.184 133.553 24.736C133.553 24.16 133.67 23.5947 133.905 23.04C134.139 22.464 134.449 21.9413 134.833 21.472C135.217 20.9813 135.665 20.5653 136.177 20.224C136.689 19.8827 137.222 19.648 137.777 19.52C138.011 19.584 138.321 19.776 138.705 20.096C139.11 20.3947 139.505 20.736 139.889 21.12C140.273 21.504 140.614 21.8987 140.913 22.304C141.211 22.688 141.393 23.008 141.457 23.264ZM130.897 37.856C131.409 37.6427 131.889 37.3333 132.337 36.928C132.806 36.5227 133.211 36.064 133.553 35.552C133.894 35.04 134.161 34.496 134.353 33.92C134.566 33.344 134.673 32.7787 134.673 32.224C134.246 32.288 133.777 32.4907 133.265 32.832C132.753 33.152 132.273 33.5467 131.825 34.016C131.377 34.464 131.003 34.9333 130.705 35.424C130.406 35.9147 130.257 36.3413 130.257 36.704C130.257 37.1733 130.47 37.5573 130.897 37.856ZM152.935 22.752C152.85 24.0747 152.615 25.216 152.231 26.176C151.847 27.1147 151.292 27.9467 150.567 28.672C149.863 29.376 148.999 30.016 147.975 30.592C146.951 31.168 145.756 31.7227 144.391 32.256C144.391 32.384 144.38 32.5227 144.359 32.672C144.359 32.8 144.359 32.9387 144.359 33.088C144.359 33.3653 144.38 33.6533 144.423 33.952C144.466 34.2507 144.54 34.528 144.647 34.784C144.754 35.04 144.903 35.2533 145.095 35.424C145.287 35.5733 145.532 35.648 145.831 35.648C146.407 35.648 146.972 35.52 147.527 35.264C148.082 35.008 148.604 34.6987 149.095 34.336C149.607 33.952 150.076 33.5467 150.503 33.12C150.951 32.672 151.346 32.2667 151.687 31.904C151.9 32.096 152.082 32.2773 152.231 32.448C151.271 33.728 150.215 34.7947 149.063 35.648C147.932 36.48 146.855 37.0133 145.831 37.248C144.359 37.0773 143.207 36.544 142.375 35.648C141.564 34.7307 141.159 33.632 141.159 32.352C141.159 31.4773 141.276 30.592 141.511 29.696C141.767 28.7787 142.108 27.904 142.535 27.072C142.983 26.2187 143.495 25.4187 144.071 24.672C144.668 23.9253 145.298 23.2747 145.959 22.72C146.642 22.1653 147.335 21.728 148.039 21.408C148.764 21.088 149.479 20.928 150.183 20.928C151.164 21.056 152.082 21.664 152.935 22.752ZM150.727 23.808C150.151 23.8933 149.554 24.128 148.935 24.512C148.316 24.896 147.73 25.408 147.175 26.048C146.642 26.688 146.151 27.4347 145.703 28.288C145.255 29.1413 144.903 30.0587 144.647 31.04C146.354 30.1867 147.772 29.1413 148.903 27.904C150.034 26.6453 150.642 25.28 150.727 23.808Z" fill="#C4C4C4"/>
</mask>
<g mask="url(#mask0_28_12)">
<rect id="Rectangle 1" x="-21" y="-2" width="197" height="54" fill="url(#paint0_linear_28_12)"/>
</g>
</g>
<g id="blume-links" clip-path="url(#clip0_28_12)">
<path id="Vector" d="M19.9559 4.40741C19.8703 4.26901 19.6887 4.22614 19.5503 4.31174L19.2935 4.47058C17.9231 5.31806 16.42 5.05881 14.9344 4.4129C15.2093 3.4989 15.8764 3.45923 15.9124 3.4577C16.0737 3.45419 16.2024 3.32144 16.2005 3.1597C16.1985 2.99704 16.0643 2.86673 15.9024 2.86871C15.5069 2.87329 14.7364 3.15833 14.3977 4.15778C14.319 4.11704 14.2541 4.08164 14.2057 4.05463C10.7946 2.14438 7.34905 1.32208 4.04918 3.34891C4.31651 1.89734 3.33171 0.4563 1.81407 0.224366C1.65309 0.199799 1.50294 0.310273 1.47837 0.470948C1.45381 0.631928 1.56428 0.782075 1.72495 0.806794C2.86631 0.981202 3.65291 2.05161 3.4785 3.19296C3.34437 4.07095 2.51902 4.68131 1.63661 4.54642C0.963997 4.44373 0.500435 3.81278 0.603279 3.14017C0.680641 2.63419 1.15534 2.28537 1.66117 2.36273C2.18959 2.44345 2.39802 3.07013 2.11833 3.38904C1.96894 3.10736 1.61189 3.03549 1.36591 3.21631C1.13886 3.38309 1.09004 3.7023 1.25681 3.92935C1.59663 4.39169 2.68183 4.11002 2.81626 3.23096C2.92216 2.53699 2.4441 1.88635 1.75013 1.7803C0.923104 1.65396 0.147193 2.22388 0.0208505 3.05121C-0.13601 4.07721 0.605263 5.11008 1.80369 5.15296C1.49821 5.44135 1.10041 5.9046 0.779366 6.57813C-0.122735 8.47068 0.180915 10.7072 0.890755 12.689C1.71366 14.9863 1.74098 17.9903 0.510506 19.4083C0.403847 19.5312 0.416969 19.7172 0.539803 19.8238C0.662636 19.9305 0.848794 19.9174 0.955453 19.7945C1.72984 18.9022 1.98725 17.6256 2.04905 16.5583C2.78315 16.756 2.8271 17.2536 2.82954 17.3124V17.3081L3.41868 17.3009C3.41426 16.9327 3.1251 16.1805 2.06538 15.9565C2.05699 13.1274 1.11796 12.4142 0.860543 10.0504C1.40742 10.5688 2.09056 10.7073 2.54878 10.5941C2.70671 10.5552 2.80452 10.3951 2.76561 10.2372C2.72654 10.0793 2.56831 9.98252 2.41038 10.0214C2.37071 10.0304 1.45014 10.2218 0.81675 9.01038C0.850777 7.8562 1.1825 6.75009 1.92652 5.87958C1.82673 7.30887 3.07917 8.37989 4.46269 8.37989C5.1794 8.37989 5.85307 8.1008 6.35997 7.59406C6.47502 7.47901 6.47502 7.29254 6.35997 7.17749C6.24492 7.06244 6.0583 7.06244 5.94325 7.17749C5.12691 7.99399 3.79847 7.99384 2.98198 7.17749C2.35194 6.5473 2.35194 5.52191 2.98198 4.89173C3.46324 4.41062 4.24617 4.41062 4.72728 4.89173C5.08922 5.25382 5.08922 5.84265 4.72728 6.20459C4.34703 6.58499 3.71959 6.37656 3.62925 5.96518C3.94435 6.01187 4.21443 5.76697 4.21443 5.46118C4.21443 5.00342 3.65764 4.78385 3.34376 5.09772C2.62965 5.81183 3.19331 6.99408 4.24388 6.99408C5.44093 6.99408 6.06898 5.4003 5.144 4.47516C4.87651 4.20783 4.54066 4.03418 4.17598 3.96964C5.41682 3.16428 6.29497 2.95371 7.43938 2.78815C8.96007 3.68002 8.64513 4.85678 8.62911 4.91248C8.58272 5.06766 8.67015 5.23123 8.82518 5.27869C8.98067 5.3263 9.14547 5.23871 9.19307 5.08322C9.20696 5.03775 9.32506 4.62302 9.19201 4.06439C9.10488 3.69818 8.89263 3.21799 8.39336 2.75931C10.2534 2.85437 12.2697 3.64569 13.918 4.5687C14.9153 5.12717 16.2785 5.59912 17.4243 5.59912C18.8345 5.59912 19.7105 4.88333 19.8602 4.81284C19.9986 4.72739 20.0415 4.54581 19.9559 4.40741V4.40741Z" fill="#B9E746"/>
<path id="Vector_2" d="M11.1957 7.95899C11.1934 8.26859 11.1683 8.51807 11.1494 8.66059C11.1408 8.72574 11.07 8.76191 11.0119 8.73124C7.68331 6.97464 8.90097 4.43481 8.90097 4.43481C9.1155 4.48868 9.31066 4.55826 9.48782 4.64111C10.9707 5.33524 11.2037 6.9606 11.1957 7.95899V7.95899Z" fill="#F43F5E"/>
<path id="Vector_3" d="M11.1952 7.95899C9.45932 6.80496 9.36121 5.4274 9.48725 4.64111C10.9701 5.33524 11.2031 6.9606 11.1952 7.95899Z" fill="#F43F5E"/>
<path id="Vector_4" d="M8.61013 8.43232C8.37377 8.723 8.15496 8.93631 8.0335 9.04786C7.98482 9.09226 7.90746 9.07425 7.88274 9.01368C6.97576 6.78299 7.62273 5.18158 8.89608 4.43649C8.93545 4.4191 8.98291 4.39987 9.03753 4.37988C9.11535 4.48822 9.18402 4.59717 9.24414 4.70505C9.45044 5.07553 9.55572 5.44205 9.58746 5.7959C9.68298 6.86478 9.10788 7.81998 8.61013 8.43232Z" fill="#FB7185"/>
<path id="Vector_5" d="M8.60998 8.43235C8.06479 6.76456 8.42108 5.48679 9.24399 4.70508C9.45029 5.07556 9.55558 5.44208 9.58731 5.79593C9.68283 6.86481 9.10773 7.82002 8.60998 8.43235Z" fill="#FB7185"/>
<path id="Vector_6" d="M13.1304 6.45346C12.6277 6.55494 10.778 6.83722 9.58704 5.79596C9.24142 5.49399 8.95105 5.08032 8.76611 4.51819C8.88239 4.4393 8.90985 4.42663 9.03711 4.37994C9.18253 4.3273 9.37891 4.26916 9.61343 4.23376C10.4716 4.10498 11.8389 4.27862 13.057 6.10236C13.1022 6.16996 13.1469 6.23938 13.1918 6.31171C13.2263 6.36756 13.195 6.44049 13.1304 6.45346V6.45346Z" fill="#FB7185"/>
<path id="Vector_7" d="M13.0574 6.10226C12.2709 6.14117 11.1731 6.03909 10.373 5.33947C10.0634 5.06924 9.79871 4.70944 9.61377 4.23382C10.4719 4.10489 11.8393 4.27853 13.0574 6.10226Z" fill="#FB7185"/>
<path id="Vector_8" d="M17.855 1.08561C17.8213 1.27024 17.7796 1.43991 17.7312 1.5951C17.3354 2.86737 16.4996 3.19422 15.9849 3.27082C15.7269 3.30927 15.5497 3.28455 15.5497 3.28455C15.4386 1.54367 17.2933 1.08438 17.7659 0.995731C17.8188 0.985813 17.8649 1.0322 17.855 1.08561Z" fill="#F43F5E"/>
<path id="Vector_9" d="M17.7317 1.59497C17.3359 2.86725 16.5 3.1941 15.9854 3.2707C16.1649 2.24896 17.1108 1.78891 17.7317 1.59497V1.59497Z" fill="#F43F5E"/>
<path id="Vector_10" d="M15.9981 3.01578C15.8976 3.13434 15.7758 3.24741 15.6305 3.35315C15.5527 3.29105 15.5477 3.28678 15.4871 3.20819C15.1851 2.81772 14.5727 1.70185 15.8596 0.183597C15.8945 0.142398 15.9597 0.148654 15.9856 0.196262C16.0402 0.296054 16.1274 0.468021 16.2107 0.686374C16.4424 1.29489 16.6403 2.262 15.9981 3.01578V3.01578Z" fill="#FB7185"/>
<path id="Vector_11" d="M15.9982 3.01569C15.7462 2.55716 15.5266 1.73822 16.2108 0.686279C16.4426 1.2948 16.6405 2.26191 15.9982 3.01569Z" fill="#FB7185"/>
<path id="Vector_12" d="M5.20327 12.2877C4.48443 12.3179 2.401 12.2323 2.02441 10.2746C2.02441 10.2746 2.21378 10.1963 2.51269 10.1613C3.16272 10.0847 4.332 10.212 5.20922 11.7879C5.25591 11.8708 5.30108 11.9576 5.34548 12.0487C5.39767 12.156 5.32305 12.2825 5.20327 12.2877Z" fill="#F43F5E"/>
<path id="Vector_13" d="M5.20923 11.788C4.38663 11.7582 2.98755 11.5025 2.5127 10.1613C3.16272 10.0847 4.332 10.212 5.20923 11.788Z" fill="#F43F5E"/>
<path id="Vector_14" d="M3.61576 12.7175C3.60752 13.1025 3.54817 13.4379 3.50071 13.65C3.47431 13.767 3.33653 13.8184 3.23948 13.747C1.74641 12.6492 1.50059 11.3218 2.0261 10.2708C2.0261 10.2692 2.03633 10.2543 2.0493 10.2361C2.06898 10.2083 2.09446 10.1737 2.09767 10.1694C2.54383 10.3441 2.86518 10.5971 3.09452 10.8898C3.52619 11.442 3.62873 12.1361 3.61576 12.7175Z" fill="#FB7185"/>
<path id="Vector_15" d="M3.61537 12.7175C3.58074 12.7178 3.54503 12.7076 3.51405 12.6845C2.47783 11.9224 2.04219 11.05 2.0489 10.2361C2.06859 10.2083 2.09407 10.1737 2.09727 10.1694C2.54344 10.3441 2.86479 10.5971 3.09413 10.8898C3.5258 11.442 3.62834 12.1361 3.61537 12.7175Z" fill="#FB7185"/>
<path id="Vector_16" d="M4.64723 18.8498C2.82822 18.4369 3.02583 17.0159 3.02583 17.0159C3.21168 17.004 3.37892 17.0197 3.53013 17.0571C4.24424 17.2318 4.59504 17.8832 4.75969 18.3615C4.79616 18.468 4.82362 18.5659 4.84376 18.6479C4.87321 18.767 4.76716 18.8768 4.64723 18.8498V18.8498Z" fill="#F43F5E"/>
<path id="Vector_17" d="M4.75983 18.3616C3.87802 18.0474 3.60809 17.4589 3.53027 17.0571C4.24439 17.2318 4.59519 17.8833 4.75983 18.3616V18.3616Z" fill="#F43F5E"/>
<path id="Vector_18" d="M3.57932 19.005C3.52912 19.1511 3.47296 19.2785 3.42414 19.3774C3.36875 19.4894 3.216 19.5031 3.14093 19.4033C2.42926 18.4599 2.5141 17.5941 3.02191 17.0194C3.03107 17.0104 3.06982 16.979 3.08752 16.9656C3.15985 17.0191 3.22424 17.0748 3.28192 17.1322C3.43085 17.2802 3.53491 17.4401 3.60404 17.6051C3.8079 18.0886 3.71405 18.6141 3.57932 19.005V19.005Z" fill="#FB7185"/>
<path id="Vector_19" d="M3.57919 19.0049C3.09258 18.3018 3.04619 17.6474 3.28179 17.1321C3.43072 17.2801 3.53478 17.44 3.60391 17.605C3.80776 18.0885 3.71392 18.614 3.57919 19.0049V19.0049Z" fill="#FB7185"/>
<path id="Vector_20" d="M5.37822 17.4452C5.01292 17.6196 4.26539 17.8923 3.60422 17.6051C3.37641 17.5065 3.15851 17.3408 2.97021 17.0811C2.98212 17.0666 3.01508 17.0265 3.02408 17.0175C3.12036 16.9346 3.22397 16.8631 3.33444 16.8054C3.84623 16.5367 4.50144 16.5544 5.20411 17.017C5.27171 17.0611 5.33931 17.1098 5.40767 17.1624C5.50624 17.239 5.49083 17.3915 5.37822 17.4452V17.4452Z" fill="#FB7185"/>
<path id="Vector_21" d="M5.20413 17.0168C4.80588 17.1622 4.23749 17.2788 3.7222 17.0545C3.58823 16.9965 3.45746 16.9155 3.33447 16.8051C3.84625 16.5364 4.50147 16.5541 5.20413 17.0168Z" fill="#FB7185"/>
<path id="Vector_22" d="M18.6596 3.01518C18.5456 3.10948 18.4341 3.1931 18.3253 3.26741C17.2219 4.01952 16.37 3.79369 15.897 3.53017C15.7874 3.46959 15.6983 3.40642 15.6307 3.35301C15.5529 3.29091 15.5479 3.28664 15.4873 3.20805C15.7234 2.89067 15.9945 2.6891 16.2777 2.56978C17.2354 2.1671 18.3273 2.70756 18.6489 2.88914C18.6961 2.91539 18.7013 2.9807 18.6596 3.01518Z" fill="#FB7185"/>
<path id="Vector_23" d="M18.3253 3.26749C17.2219 4.0196 16.37 3.79377 15.897 3.53025C16.0667 3.37003 16.2481 3.25529 16.4347 3.1767C17.1017 2.89625 17.8335 3.0734 18.3253 3.26749Z" fill="#FB7185"/>
<path id="Vector_24" d="M5.69192 9.87264C5.2894 10.2399 4.24768 11.057 3.09442 10.8896C2.72668 10.8367 2.34766 10.683 1.97412 10.3829C1.99258 10.3394 2.01028 10.302 2.026 10.2706C2.026 10.2703 2.02646 10.2698 2.02676 10.2691C2.13556 10.1037 2.26282 9.95321 2.40823 9.82167C3.03552 9.25054 3.99347 9.02196 5.19632 9.42296C5.3428 9.47164 5.4928 9.52977 5.64645 9.59768C5.75647 9.6465 5.78073 9.79177 5.69192 9.87264V9.87264Z" fill="#FB7185"/>
<path id="Vector_25" d="M5.19628 9.42304C4.67855 9.78393 3.91501 10.163 3.09439 10.0439C2.86856 10.0114 2.63831 9.9411 2.4082 9.82162C3.03549 9.25061 3.99344 9.02188 5.19628 9.42304Z" fill="#FB7185"/>
</g>
<g id="blume-rechts" clip-path="url(#clip1_28_12)">
<path id="Vector_26" d="M142.044 4.40741C142.13 4.26901 142.311 4.22614 142.45 4.31174L142.707 4.47058C144.077 5.31806 145.58 5.05881 147.066 4.4129C146.791 3.4989 146.124 3.45923 146.088 3.4577C145.926 3.45419 145.798 3.32144 145.799 3.1597C145.801 2.99704 145.936 2.86673 146.098 2.86871C146.493 2.87329 147.264 3.15833 147.602 4.15778C147.681 4.11704 147.746 4.08164 147.794 4.05463C151.205 2.14438 154.651 1.32208 157.951 3.34891C157.683 1.89734 158.668 0.4563 160.186 0.224366C160.347 0.199799 160.497 0.310273 160.522 0.470948C160.546 0.631928 160.436 0.782075 160.275 0.806794C159.134 0.981202 158.347 2.05161 158.522 3.19296C158.656 4.07095 159.481 4.68131 160.363 4.54642C161.036 4.44373 161.5 3.81278 161.397 3.14017C161.319 2.63419 160.845 2.28537 160.339 2.36273C159.81 2.44345 159.602 3.07013 159.882 3.38904C160.031 3.10736 160.388 3.03549 160.634 3.21631C160.861 3.38309 160.91 3.7023 160.743 3.92935C160.403 4.39169 159.318 4.11002 159.184 3.23096C159.078 2.53699 159.556 1.88635 160.25 1.7803C161.077 1.65396 161.853 2.22388 161.979 3.05121C162.136 4.07721 161.395 5.11008 160.196 5.15296C160.502 5.44135 160.9 5.9046 161.221 6.57813C162.123 8.47068 161.819 10.7072 161.109 12.689C160.286 14.9863 160.259 17.9903 161.489 19.4083C161.596 19.5312 161.583 19.7172 161.46 19.8238C161.337 19.9305 161.151 19.9174 161.045 19.7945C160.27 18.9022 160.013 17.6256 159.951 16.5583C159.217 16.756 159.173 17.2536 159.17 17.3124V17.3081L158.581 17.3009C158.586 16.9327 158.875 16.1805 159.935 15.9565C159.943 13.1274 160.882 12.4142 161.139 10.0504C160.593 10.5688 159.909 10.7073 159.451 10.5941C159.293 10.5552 159.195 10.3951 159.234 10.2372C159.273 10.0793 159.432 9.98252 159.59 10.0214C159.629 10.0304 160.55 10.2218 161.183 9.01038C161.149 7.8562 160.817 6.75009 160.073 5.87958C160.173 7.30887 158.921 8.37989 157.537 8.37989C156.821 8.37989 156.147 8.1008 155.64 7.59406C155.525 7.47901 155.525 7.29254 155.64 7.17749C155.755 7.06244 155.942 7.06244 156.057 7.17749C156.873 7.99399 158.202 7.99384 159.018 7.17749C159.648 6.5473 159.648 5.52191 159.018 4.89173C158.537 4.41062 157.754 4.41062 157.273 4.89173C156.911 5.25382 156.911 5.84265 157.273 6.20459C157.653 6.58499 158.28 6.37656 158.371 5.96518C158.056 6.01187 157.786 5.76697 157.786 5.46118C157.786 5.00342 158.342 4.78385 158.656 5.09772C159.37 5.81183 158.807 6.99408 157.756 6.99408C156.559 6.99408 155.931 5.4003 156.856 4.47516C157.123 4.20783 157.459 4.03418 157.824 3.96964C156.583 3.16428 155.705 2.95371 154.561 2.78815C153.04 3.68002 153.355 4.85678 153.371 4.91248C153.417 5.06766 153.33 5.23123 153.175 5.27869C153.019 5.3263 152.855 5.23871 152.807 5.08322C152.793 5.03775 152.675 4.62302 152.808 4.06439C152.895 3.69818 153.107 3.21799 153.607 2.75931C151.747 2.85437 149.73 3.64569 148.082 4.5687C147.085 5.12717 145.721 5.59912 144.576 5.59912C143.165 5.59912 142.289 4.88333 142.14 4.81284C142.001 4.72739 141.959 4.54581 142.044 4.40741V4.40741Z" fill="#B9E746"/>
<path id="Vector_27" d="M150.804 7.95899C150.807 8.26859 150.832 8.51807 150.851 8.66059C150.859 8.72574 150.93 8.76191 150.988 8.73124C154.317 6.97464 153.099 4.43481 153.099 4.43481C152.884 4.48868 152.689 4.55826 152.512 4.64111C151.029 5.33524 150.796 6.9606 150.804 7.95899V7.95899Z" fill="#E11D48"/>
<path id="Vector_28" d="M150.805 7.95899C152.541 6.80496 152.639 5.4274 152.513 4.64111C151.03 5.33524 150.797 6.9606 150.805 7.95899Z" fill="#E11D48"/>
<path id="Vector_29" d="M153.39 8.43232C153.626 8.723 153.845 8.93631 153.967 9.04786C154.015 9.09226 154.093 9.07425 154.117 9.01368C155.024 6.78299 154.377 5.18158 153.104 4.43649C153.065 4.4191 153.017 4.39987 152.962 4.37988C152.885 4.48822 152.816 4.59717 152.756 4.70505C152.55 5.07553 152.444 5.44205 152.413 5.7959C152.317 6.86478 152.892 7.81998 153.39 8.43232Z" fill="#F43F5E"/>
<path id="Vector_30" d="M153.39 8.43235C153.935 6.76456 153.579 5.48679 152.756 4.70508C152.55 5.07556 152.444 5.44208 152.413 5.79593C152.317 6.86481 152.892 7.82002 153.39 8.43235Z" fill="#F43F5E"/>
<path id="Vector_31" d="M148.87 6.45346C149.372 6.55494 151.222 6.83722 152.413 5.79596C152.759 5.49399 153.049 5.08032 153.234 4.51819C153.118 4.4393 153.09 4.42663 152.963 4.37994C152.817 4.3273 152.621 4.26916 152.387 4.23376C151.528 4.10498 150.161 4.27862 148.943 6.10236C148.898 6.16996 148.853 6.23938 148.808 6.31171C148.774 6.36756 148.805 6.44049 148.87 6.45346V6.45346Z" fill="#F43F5E"/>
<path id="Vector_32" d="M148.943 6.10226C149.729 6.14117 150.827 6.03909 151.627 5.33947C151.937 5.06924 152.201 4.70944 152.386 4.23382C151.528 4.10489 150.161 4.27853 148.943 6.10226Z" fill="#F43F5E"/>
<path id="Vector_33" d="M144.145 1.08561C144.179 1.27024 144.22 1.43991 144.269 1.5951C144.665 2.86737 145.5 3.19422 146.015 3.27082C146.273 3.30927 146.45 3.28455 146.45 3.28455C146.561 1.54367 144.707 1.08438 144.234 0.995731C144.181 0.985813 144.135 1.0322 144.145 1.08561Z" fill="#E11D48"/>
<path id="Vector_34" d="M144.268 1.59497C144.664 2.86725 145.5 3.1941 146.015 3.2707C145.835 2.24896 144.889 1.78891 144.268 1.59497V1.59497Z" fill="#E11D48"/>
<path id="Vector_35" d="M146.002 3.01578C146.102 3.13434 146.224 3.24741 146.369 3.35315C146.447 3.29105 146.452 3.28678 146.513 3.20819C146.815 2.81772 147.427 1.70185 146.14 0.183597C146.105 0.142398 146.04 0.148654 146.014 0.196262C145.96 0.296054 145.873 0.468021 145.789 0.686374C145.558 1.29489 145.36 2.262 146.002 3.01578V3.01578Z" fill="#F43F5E"/>
<path id="Vector_36" d="M146.002 3.01569C146.254 2.55716 146.473 1.73822 145.789 0.686279C145.557 1.2948 145.36 2.26191 146.002 3.01569Z" fill="#F43F5E"/>
<path id="Vector_37" d="M156.797 12.2877C157.516 12.3179 159.599 12.2323 159.976 10.2746C159.976 10.2746 159.786 10.1963 159.487 10.1613C158.837 10.0847 157.668 10.212 156.791 11.7879C156.744 11.8708 156.699 11.9576 156.655 12.0487C156.602 12.156 156.677 12.2825 156.797 12.2877Z" fill="#E11D48"/>
<path id="Vector_38" d="M156.791 11.788C157.613 11.7582 159.012 11.5025 159.487 10.1613C158.837 10.0847 157.668 10.212 156.791 11.788Z" fill="#E11D48"/>
<path id="Vector_39" d="M158.384 12.7175C158.392 13.1025 158.452 13.4379 158.499 13.65C158.526 13.767 158.663 13.8184 158.761 13.747C160.254 12.6492 160.499 11.3218 159.974 10.2708C159.974 10.2692 159.964 10.2543 159.951 10.2361C159.931 10.2083 159.906 10.1737 159.902 10.1694C159.456 10.3441 159.135 10.5971 158.905 10.8898C158.474 11.442 158.371 12.1361 158.384 12.7175Z" fill="#F43F5E"/>
<path id="Vector_40" d="M158.385 12.7175C158.419 12.7178 158.455 12.7076 158.486 12.6845C159.522 11.9224 159.958 11.05 159.951 10.2361C159.931 10.2083 159.906 10.1737 159.903 10.1694C159.457 10.3441 159.135 10.5971 158.906 10.8898C158.474 11.442 158.372 12.1361 158.385 12.7175Z" fill="#F43F5E"/>
<path id="Vector_41" d="M157.353 18.8498C159.172 18.4369 158.974 17.0159 158.974 17.0159C158.788 17.004 158.621 17.0197 158.47 17.0571C157.756 17.2318 157.405 17.8832 157.24 18.3615C157.204 18.468 157.176 18.5659 157.156 18.6479C157.127 18.767 157.233 18.8768 157.353 18.8498V18.8498Z" fill="#E11D48"/>
<path id="Vector_42" d="M157.24 18.3616C158.122 18.0474 158.392 17.4589 158.47 17.0571C157.756 17.2318 157.405 17.8833 157.24 18.3616V18.3616Z" fill="#E11D48"/>
<path id="Vector_43" d="M158.421 19.005C158.471 19.1511 158.527 19.2785 158.576 19.3774C158.631 19.4894 158.784 19.5031 158.859 19.4033C159.571 18.4599 159.486 17.5941 158.978 17.0194C158.969 17.0104 158.93 16.979 158.912 16.9656C158.84 17.0191 158.776 17.0748 158.718 17.1322C158.569 17.2802 158.465 17.4401 158.396 17.6051C158.192 18.0886 158.286 18.6141 158.421 19.005V19.005Z" fill="#F43F5E"/>
<path id="Vector_44" d="M158.421 19.0049C158.907 18.3018 158.954 17.6474 158.718 17.1321C158.569 17.2801 158.465 17.44 158.396 17.605C158.192 18.0885 158.286 18.614 158.421 19.0049V19.0049Z" fill="#F43F5E"/>
<path id="Vector_45" d="M156.622 17.4452C156.987 17.6196 157.735 17.8923 158.396 17.6051C158.624 17.5065 158.841 17.3408 159.03 17.0811C159.018 17.0666 158.985 17.0265 158.976 17.0175C158.88 16.9346 158.776 16.8631 158.666 16.8054C158.154 16.5367 157.499 16.5544 156.796 17.017C156.728 17.0611 156.661 17.1098 156.592 17.1624C156.494 17.239 156.509 17.3915 156.622 17.4452V17.4452Z" fill="#F43F5E"/>
<path id="Vector_46" d="M156.796 17.0168C157.194 17.1622 157.763 17.2788 158.278 17.0545C158.412 16.9965 158.543 16.9155 158.666 16.8051C158.154 16.5364 157.499 16.5541 156.796 17.0168Z" fill="#F43F5E"/>
<path id="Vector_47" d="M143.34 3.01518C143.454 3.10948 143.566 3.1931 143.675 3.26741C144.778 4.01952 145.63 3.79369 146.103 3.53017C146.213 3.46959 146.302 3.40642 146.369 3.35301C146.447 3.29091 146.452 3.28664 146.513 3.20805C146.277 2.89067 146.005 2.6891 145.722 2.56978C144.765 2.1671 143.673 2.70756 143.351 2.88914C143.304 2.91539 143.299 2.9807 143.34 3.01518Z" fill="#F43F5E"/>
<path id="Vector_48" d="M143.675 3.26749C144.778 4.0196 145.63 3.79377 146.103 3.53025C145.933 3.37003 145.752 3.25529 145.565 3.1767C144.898 2.89625 144.167 3.0734 143.675 3.26749Z" fill="#F43F5E"/>
<path id="Vector_49" d="M156.308 9.87264C156.711 10.2399 157.752 11.057 158.906 10.8896C159.273 10.8367 159.652 10.683 160.026 10.3829C160.007 10.3394 159.99 10.302 159.974 10.2706C159.974 10.2703 159.974 10.2698 159.973 10.2691C159.864 10.1037 159.737 9.95321 159.592 9.82167C158.964 9.25054 158.007 9.02196 156.804 9.42296C156.657 9.47164 156.507 9.52977 156.354 9.59768C156.244 9.6465 156.219 9.79177 156.308 9.87264V9.87264Z" fill="#F43F5E"/>
<path id="Vector_50" d="M156.804 9.42304C157.321 9.78393 158.085 10.163 158.906 10.0439C159.131 10.0114 159.362 9.9411 159.592 9.82162C158.965 9.25061 158.007 9.02188 156.804 9.42304Z" fill="#F43F5E"/>
</g>
</g>
<defs>
<linearGradient id="paint0_linear_28_12" x1="12" y1="14" x2="124.5" y2="37" gradientUnits="userSpaceOnUse">
<stop stop-color="#EC4899"/>
<stop offset="1" stop-color="#BE123C"/>
<stop offset="1" stop-color="#C4C4C4" stop-opacity="0"/>
</linearGradient>
<clipPath id="clip0_28_12">
<rect width="20" height="20" fill="white"/>
</clipPath>
<clipPath id="clip1_28_12">
<rect width="20" height="20" fill="white" transform="matrix(-1 0 0 1 162 0)"/>
</clipPath>
</defs>
</svg>
