<svg width="24" height="24" viewBox="0 0 24 24" fill="none" xmlns="http://www.w3.org/2000/svg">
<path d="M12 24C18.6257 24 24 18.6257 24 12C24 5.37427 18.6257 0 12 0C5.37427 0 0 5.37427 0 12C0 18.6257 5.37427 24 12 24ZM11.1428 5.14287C11.1428 4.67142 11.5286 4.2857 12 4.2857C12.4714 4.2857 12.8572 4.67142 12.8572 5.14287V11.5886L16.8215 14.76C17.19 15.0557 17.25 15.5957 16.9543 15.9643C16.7871 16.1743 16.5386 16.2857 16.2857 16.2857C16.0971 16.2857 15.9085 16.2257 15.75 16.0971L11.4643 12.6686C11.2629 12.5057 11.1429 12.2615 11.1429 12V5.14287H11.1428Z" fill="#FB7185"/>
</svg>
